<?xml version="1.0" standalone="no"?>
<!DOCTYPE svg PUBLIC "-//W3C//DTD SVG 20010904//EN"
 "http://www.w3.org/TR/2001/REC-SVG-20010904/DTD/svg10.dtd">
<svg version="1.0" xmlns="http://www.w3.org/2000/svg"
 width="40.000000pt" height="40.000000pt" viewBox="0 0 40.000000 40.000000"
 preserveAspectRatio="xMidYMid meet">

<g transform="translate(0.000000,40.000000) scale(0.100000,-0.100000)"
fill="#000000" stroke="none">
<path d="M110 378 c-99 -53 -138 -173 -88 -268 53 -99 173 -138 268 -88 99 53
138 173 88 268 -53 99 -173 138 -268 88z m177 -56 c43 -30 66 -85 60 -138 -9
-84 -80 -141 -163 -131 -192 21 -166 310 27 294 26 -2 60 -13 76 -25z"/>
<path d="M170 211 c0 -18 -8 -34 -21 -42 l-21 -14 22 -28 c14 -18 31 -27 48
-27 35 1 82 42 82 73 0 33 -40 67 -78 67 -29 0 -32 -3 -32 -29z"/>
</g>
</svg>
